<svg id="visual" viewBox="0 0 1024 300" width="1024" height="300" xmlns="http://www.w3.org/2000/svg" xmlns:xlink="http://www.w3.org/1999/xlink" version="1.1"><rect x="0" y="0" width="1024" height="300" fill="#4a5881"></rect><path d="M0 91L34.2 88.3C68.3 85.7 136.7 80.3 205 84.2C273.3 88 341.7 101 409.8 109.5C478 118 546 122 614.2 122.3C682.3 122.7 750.7 119.3 819 113.2C887.3 107 955.7 98 989.8 93.5L1024 89L1024 301L989.8 301C955.7 301 887.3 301 819 301C750.7 301 682.3 301 614.2 301C546 301 478 301 409.8 301C341.7 301 273.3 301 205 301C136.7 301 68.3 301 34.2 301L0 301Z" fill="#4a5881"></path><path d="M0 149L34.2 150.7C68.3 152.3 136.7 155.7 205 153.5C273.3 151.3 341.7 143.7 409.8 137.3C478 131 546 126 614.2 125.5C682.3 125 750.7 129 819 131C887.3 133 955.7 133 989.8 133L1024 133L1024 301L989.8 301C955.7 301 887.3 301 819 301C750.7 301 682.3 301 614.2 301C546 301 478 301 409.8 301C341.7 301 273.3 301 205 301C136.7 301 68.3 301 34.2 301L0 301Z" fill="#767e9f"></path><path d="M0 161L34.2 166.2C68.3 171.3 136.7 181.7 205 185C273.3 188.3 341.7 184.7 409.8 180.2C478 175.7 546 170.3 614.2 170.5C682.3 170.7 750.7 176.3 819 176.2C887.3 176 955.7 170 989.8 167L1024 164L1024 301L989.8 301C955.7 301 887.3 301 819 301C750.7 301 682.3 301 614.2 301C546 301 478 301 409.8 301C341.7 301 273.3 301 205 301C136.7 301 68.3 301 34.2 301L0 301Z" fill="#a2a7be"></path><path d="M0 198L34.2 201.7C68.3 205.3 136.7 212.7 205 214C273.3 215.3 341.7 210.7 409.8 208.5C478 206.3 546 206.7 614.2 205.2C682.3 203.7 750.7 200.3 819 198.8C887.3 197.3 955.7 197.7 989.8 197.8L1024 198L1024 301L989.8 301C955.7 301 887.3 301 819 301C750.7 301 682.3 301 614.2 301C546 301 478 301 409.8 301C341.7 301 273.3 301 205 301C136.7 301 68.3 301 34.2 301L0 301Z" fill="#d0d2de"></path><path d="M0 262L34.2 259.2C68.3 256.3 136.7 250.7 205 247.8C273.3 245 341.7 245 409.8 248C478 251 546 257 614.2 258.7C682.3 260.3 750.7 257.7 819 253.8C887.3 250 955.7 245 989.8 242.5L1024 240L1024 301L989.8 301C955.7 301 887.3 301 819 301C750.7 301 682.3 301 614.2 301C546 301 478 301 409.8 301C341.7 301 273.3 301 205 301C136.7 301 68.3 301 34.2 301L0 301Z" fill="#ffffff"></path></svg>