<svg id="visual" viewBox="0 0 1024 300" width="1024" height="300" xmlns="http://www.w3.org/2000/svg" xmlns:xlink="http://www.w3.org/1999/xlink" version="1.1"><rect x="0" y="0" width="1024" height="300" fill="#4a5881"></rect><path d="M0 160L34.2 159.2C68.3 158.3 136.7 156.7 205 158.2C273.3 159.7 341.7 164.3 409.8 167.2C478 170 546 171 614.2 172.7C682.3 174.3 750.7 176.7 819 171.2C887.3 165.7 955.7 152.3 989.8 145.7L1024 139L1024 301L989.8 301C955.7 301 887.3 301 819 301C750.7 301 682.3 301 614.2 301C546 301 478 301 409.8 301C341.7 301 273.3 301 205 301C136.7 301 68.3 301 34.2 301L0 301Z" fill="#4a5881"></path><path d="M0 172L34.2 173.8C68.3 175.7 136.7 179.3 205 182.7C273.3 186 341.7 189 409.8 188C478 187 546 182 614.2 178.7C682.3 175.3 750.7 173.7 819 172.5C887.3 171.3 955.7 170.7 989.8 170.3L1024 170L1024 301L989.8 301C955.7 301 887.3 301 819 301C750.7 301 682.3 301 614.2 301C546 301 478 301 409.8 301C341.7 301 273.3 301 205 301C136.7 301 68.3 301 34.2 301L0 301Z" fill="#767e9f"></path><path d="M0 221L34.2 220C68.3 219 136.7 217 205 215C273.3 213 341.7 211 409.8 212.8C478 214.7 546 220.3 614.2 218.2C682.3 216 750.7 206 819 202.5C887.3 199 955.7 202 989.8 203.5L1024 205L1024 301L989.8 301C955.7 301 887.3 301 819 301C750.7 301 682.3 301 614.2 301C546 301 478 301 409.8 301C341.7 301 273.3 301 205 301C136.7 301 68.3 301 34.2 301L0 301Z" fill="#a2a7be"></path><path d="M0 230L34.2 230.3C68.3 230.7 136.7 231.3 205 233C273.3 234.7 341.7 237.3 409.8 239.5C478 241.7 546 243.3 614.2 241.7C682.3 240 750.7 235 819 235.8C887.3 236.7 955.7 243.3 989.8 246.7L1024 250L1024 301L989.8 301C955.7 301 887.3 301 819 301C750.7 301 682.3 301 614.2 301C546 301 478 301 409.8 301C341.7 301 273.3 301 205 301C136.7 301 68.3 301 34.2 301L0 301Z" fill="#d0d2de"></path><path d="M0 267L34.2 267.3C68.3 267.7 136.7 268.3 205 268.8C273.3 269.3 341.7 269.7 409.8 267.5C478 265.3 546 260.7 614.2 259.5C682.3 258.3 750.7 260.7 819 263C887.3 265.3 955.7 267.7 989.8 268.8L1024 270L1024 301L989.8 301C955.7 301 887.3 301 819 301C750.7 301 682.3 301 614.2 301C546 301 478 301 409.8 301C341.7 301 273.3 301 205 301C136.7 301 68.3 301 34.2 301L0 301Z" fill="#ffffff"></path></svg>