<svg id="visual" viewBox="0 0 1024 300" width="1024" height="300" xmlns="http://www.w3.org/2000/svg" xmlns:xlink="http://www.w3.org/1999/xlink" version="1.1"><rect x="0" y="0" width="1024" height="300" fill="#ffffff"></rect><path d="M0 101L34.2 99.8C68.3 98.7 136.7 96.3 205 98.3C273.3 100.3 341.7 106.7 409.8 110.5C478 114.3 546 115.7 614.2 118.2C682.3 120.7 750.7 124.3 819 116.7C887.3 109 955.7 90 989.8 80.5L1024 71L1024 301L989.8 301C955.7 301 887.3 301 819 301C750.7 301 682.3 301 614.2 301C546 301 478 301 409.8 301C341.7 301 273.3 301 205 301C136.7 301 68.3 301 34.2 301L0 301Z" fill="#ffffff"></path><path d="M0 117L34.2 119.7C68.3 122.3 136.7 127.7 205 132.5C273.3 137.3 341.7 141.7 409.8 140.3C478 139 546 132 614.2 127.2C682.3 122.3 750.7 119.7 819 118C887.3 116.3 955.7 115.7 989.8 115.3L1024 115L1024 301L989.8 301C955.7 301 887.3 301 819 301C750.7 301 682.3 301 614.2 301C546 301 478 301 409.8 301C341.7 301 273.3 301 205 301C136.7 301 68.3 301 34.2 301L0 301Z" fill="#d0d2de"></path><path d="M0 188L34.2 186.5C68.3 185 136.7 182 205 179.2C273.3 176.3 341.7 173.7 409.8 176.2C478 178.7 546 186.3 614.2 183.2C682.3 180 750.7 166 819 161.2C887.3 156.3 955.7 160.7 989.8 162.8L1024 165L1024 301L989.8 301C955.7 301 887.3 301 819 301C750.7 301 682.3 301 614.2 301C546 301 478 301 409.8 301C341.7 301 273.3 301 205 301C136.7 301 68.3 301 34.2 301L0 301Z" fill="#a2a7be"></path><path d="M0 201L34.2 201.3C68.3 201.7 136.7 202.3 205 204.5C273.3 206.7 341.7 210.3 409.8 213.3C478 216.3 546 218.7 614.2 216.3C682.3 214 750.7 207 819 208.3C887.3 209.7 955.7 219.3 989.8 224.2L1024 229L1024 301L989.8 301C955.7 301 887.3 301 819 301C750.7 301 682.3 301 614.2 301C546 301 478 301 409.8 301C341.7 301 273.3 301 205 301C136.7 301 68.3 301 34.2 301L0 301Z" fill="#767e9f"></path><path d="M0 254L34.2 254.3C68.3 254.7 136.7 255.3 205 255.8C273.3 256.3 341.7 256.7 409.8 253.7C478 250.7 546 244.3 614.2 242.8C682.3 241.3 750.7 244.7 819 248C887.3 251.3 955.7 254.7 989.8 256.3L1024 258L1024 301L989.8 301C955.7 301 887.3 301 819 301C750.7 301 682.3 301 614.2 301C546 301 478 301 409.8 301C341.7 301 273.3 301 205 301C136.7 301 68.3 301 34.2 301L0 301Z" fill="#4a5881"></path></svg>